# xmcd
#
# Track frame offsets:
# 150
# 25276
# 55761
# 89270
# 117617
# 160823
# 198000
# 229629
# 253834
# 286364
#
# Disc length: 4245 seconds
#
#
# Revision: 0
# Processed by: cddbd v1.5.2PL0 Copyright (c) Steve Scherf et al.
# Submitted via: FreeRIP 2.945 
#
DISCID=8310930a
DTITLE=Herriot-J1977 - Wise-Wonderful08
DYEAR=1977
DGENRE=Jungle
TTITLE0=WW 0801
TTITLE1=WW 0802
TTITLE2=WW 0803
TTITLE3=WW 0804
TTITLE4=WW 0805
TTITLE5=WW 0806
TTITLE6=WW 0807
TTITLE7=WW 0808
TTITLE8=WW 0809
TTITLE9=WW 0810
EXTD=All Things Wise and Wonderful 12 CDs\nby James Herriot - read by Christopher Timothy\nRennasance Audio - Jungle Country
EXTT0=
EXTT1=
EXTT2=
EXTT3=
EXTT4=
EXTT5=
EXTT6=
EXTT7=
EXTT8=
EXTT9=
PLAYORDER=
